<svg width="143" height="110" viewBox="0 0 143 110" fill="none" xmlns="http://www.w3.org/2000/svg">
<path d="M71.5 0C80.9815 0 90.0746 2.89731 96.7791 8.05456C103.483 13.2118 107.25 20.2065 107.25 27.5C107.25 34.7935 103.483 41.7882 96.7791 46.9454C90.0746 52.1027 80.9815 55 71.5 55C62.0185 55 52.9254 52.1027 46.2209 46.9454C39.5165 41.7882 35.75 34.7935 35.75 27.5C35.75 20.2065 39.5165 13.2118 46.2209 8.05456C52.9254 2.89731 62.0185 0 71.5 0ZM71.5 68.75C111.004 68.75 143 81.0563 143 96.25V110H0V96.25C0 81.0563 31.9963 68.75 71.5 68.75Z" fill="black"/>
</svg>
