<svg width="82" height="88" viewBox="0 0 82 88" fill="none" xmlns="http://www.w3.org/2000/svg">
<path d="M31.25 84.3806V62.4743C31.25 60.9431 32.8125 59.3806 34.375 59.3806H46.875C48.4375 59.3806 50 60.9431 50 62.5056V84.3806C50 85.2094 50.3292 86.0042 50.9153 86.5903C51.5013 87.1763 52.2962 87.5056 53.125 87.5056H78.125C78.9538 87.5056 79.7487 87.1763 80.3347 86.5903C80.9208 86.0042 81.25 85.2094 81.25 84.3806V40.6306C81.2507 40.2199 81.1705 39.8132 81.014 39.4335C80.8574 39.0539 80.6275 38.7088 80.3375 38.4181L71.875 29.9618V9.38059C71.875 8.55178 71.5458 7.75693 70.9597 7.17088C70.3737 6.58483 69.5788 6.25559 68.75 6.25559H62.5C61.6712 6.25559 60.8764 6.58483 60.2903 7.17088C59.7042 7.75693 59.375 8.55178 59.375 9.38059V17.4618L42.8375 0.918086C42.5472 0.627066 42.2024 0.396173 41.8227 0.238633C41.4431 0.0810925 41.0361 0 40.625 0C40.214 0 39.807 0.0810925 39.4273 0.238633C39.0476 0.396173 38.7028 0.627066 38.4125 0.918086L0.912505 38.4181C0.622494 38.7088 0.39263 39.0539 0.236057 39.4335C0.0794841 39.8132 -0.000728435 40.2199 4.98435e-06 40.6306V84.3806C4.98435e-06 85.2094 0.329245 86.0042 0.915296 86.5903C1.50135 87.1763 2.2962 87.5056 3.12501 87.5056H28.125C28.9538 87.5056 29.7487 87.1763 30.3347 86.5903C30.9208 86.0042 31.25 85.2094 31.25 84.3806Z" fill="#808080"/>
</svg>
