<svg width="76" height="100" viewBox="0 0 76 100" fill="none" xmlns="http://www.w3.org/2000/svg">
<path d="M63 0H13C9.68479 0 6.50537 1.31696 4.16116 3.66117C1.81696 6.00537 0.5 9.18479 0.5 12.5V87.5C0.5 90.8152 1.81696 93.9946 4.16116 96.3388C6.50537 98.683 9.68479 100 13 100H63C66.3152 100 69.4946 98.683 71.8388 96.3388C74.183 93.9946 75.5 90.8152 75.5 87.5V12.5C75.5 9.18479 74.183 6.00537 71.8388 3.66117C69.4946 1.31696 66.3152 0 63 0ZM56.75 43.75C56.75 48.7228 54.7746 53.4919 51.2583 57.0083C47.7419 60.5246 42.9728 62.5 38 62.5C33.0272 62.5 28.2581 60.5246 24.7417 57.0083C21.2254 53.4919 19.25 48.7228 19.25 43.75C19.25 38.7772 21.2254 34.0081 24.7417 30.4917C28.2581 26.9754 33.0272 25 38 25C42.9728 25 47.7419 26.9754 51.2583 30.4917C54.7746 34.0081 56.75 38.7772 56.75 43.75ZM38 68.75C54.3937 68.75 63.9125 73.9125 69.25 79.7188V87.5C69.25 89.1576 68.5915 90.7473 67.4194 91.9194C66.2473 93.0915 64.6576 93.75 63 93.75H13C11.3424 93.75 9.75268 93.0915 8.58058 91.9194C7.40848 90.7473 6.75 89.1576 6.75 87.5V79.7188C12.0875 73.9063 21.6063 68.75 38 68.75Z" fill="#808080"/>
</svg>
